<svg width="61" height="29" viewBox="0 0 61 29" fill="none" xmlns="http://www.w3.org/2000/svg">
<g clip-path="url(#clip0_2004_334)">
<path fill-rule="evenodd" clip-rule="evenodd" d="M9.52269 6.174C10.2307 5.89417 10.9708 5.75241 11.7154 5.754C15.0621 5.754 17.8558 8.578 18.4955 12.334L23.2378 11.184C22.1497 4.801 17.4057 0 11.7162 0C10.4121 0 9.16081 0.252 7.98779 0.718L9.52269 6.174Z" fill="#CFCFCF"/>
<path fill-rule="evenodd" clip-rule="evenodd" d="M4.01611 24.667L7.2623 20.314C5.81314 18.791 4.89896 16.569 4.89896 14.094C4.89896 11.619 5.81149 9.39805 7.25982 7.87705L4.01446 3.52405C1.55303 6.11005 0 9.88705 0 14.094C0 18.302 1.55303 22.08 4.01611 24.667Z" fill="#CFCFCF"/>
<path fill-rule="evenodd" clip-rule="evenodd" d="M18.4963 15.8571C17.8541 19.6121 15.0638 22.4341 11.7203 22.4341C10.9744 22.4359 10.2331 22.2931 9.52433 22.0111L7.98779 27.4731C9.15998 27.9391 10.4146 28.1901 11.7195 28.1901C17.4024 28.1901 22.1456 23.3931 23.2378 17.0141L18.4963 15.8571V15.8571Z" fill="#CFCFCF"/>
<path fill-rule="evenodd" clip-rule="evenodd" d="M36.6626 18.725L36.6593 18.729L36.5249 18.619C36.1375 19.383 35.5358 20.003 34.7733 20.405C33.3249 21.172 31.9829 20.975 31.0193 19.945L30.9311 20.109C30.9294 20.107 30.9294 20.106 30.9278 20.106L29.2841 23.102C29.6929 23.4481 30.1309 23.7404 30.5906 23.974C32.4066 24.894 34.2638 24.851 36.0938 23.881C37.4185 23.182 38.4563 22.116 39.1669 20.765L36.6626 18.725V18.725ZM31.5312 11.332C30.0021 12.132 29.2132 13.881 29.3756 15.931L35.8548 12.533C34.7403 10.937 33.2911 10.409 31.5312 11.332ZM27.2299 20.46C27.0462 20.0887 26.8821 19.7036 26.7386 19.307C25.9909 17.192 25.9555 15.004 26.5861 12.903C27.2802 10.599 28.6057 8.83505 30.3194 7.93705C32.4734 6.80705 34.8549 7.03005 36.919 8.52305C38.2305 9.43905 39.1603 10.855 39.8659 12.856C39.9566 13.112 40.0349 13.386 40.1124 13.619L27.2299 20.459V20.46ZM44.6149 3.52405V20.183L46.7408 21.233L45.5332 24.667L43.1871 23.477C42.6604 23.198 42.3018 22.773 42.0306 22.293C41.771 21.803 41.5772 21.133 41.5772 20.228V3.52405H44.6149V3.52405ZM50.1214 15.939C50.1203 16.6109 50.2373 17.2752 50.4648 17.8877C50.6922 18.5003 51.0248 19.0469 51.4403 19.491L49.2624 22.457C48.5037 21.6385 47.8969 20.6338 47.4822 19.5095C47.0675 18.3852 46.8544 17.1668 46.857 15.935C46.8561 14.7039 47.0708 13.4866 47.4867 12.3637C47.9027 11.2407 48.5104 10.2377 49.2698 9.42105L51.4502 12.384C51.0325 12.8274 50.6978 13.3739 50.4686 13.9871C50.2394 14.6003 50.121 15.2658 50.1214 15.939V15.939ZM53.9957 20.667C55.8685 20.669 57.4315 19.052 57.7958 16.901L60.9967 17.697C60.329 21.666 57.4455 24.651 53.9924 24.647C53.2216 24.6467 52.456 24.4944 51.7255 24.196L52.7674 20.423C53.1532 20.579 53.567 20.666 53.9957 20.667V20.667ZM54.0056 7.23905C57.4611 7.24205 60.3413 10.239 61 14.213L57.7983 15.003C57.6227 13.9377 57.1488 12.9788 56.457 12.2889C55.7651 11.5991 54.8978 11.2207 54.0023 11.218C53.5845 11.2182 53.1695 11.2999 52.7732 11.46L51.7412 7.68305C52.4712 7.38725 53.2359 7.2373 54.0056 7.23905V7.23905Z" fill="#CFCFCF"/>
</g>
<defs>
<clipPath id="clip0_2004_334">
<rect width="61" height="29" fill="white"/>
</clipPath>
</defs>
</svg>
